<svg width="28" height="26" fill="none" xmlns="http://www.w3.org/2000/svg"><path d="M11.84 24.83.06.836A.582.582 0 0 1 .581 0h4.082c.219 0 .424.124.52.315l8.603 17.407c.767 1.562 2.986 1.562 3.753 0L26.114.33a.586.586 0 0 1 .521-.315h.507c.301 0 .493.315.357.575L15.595 24.83c-.768 1.561-2.988 1.561-3.755 0Z" fill="#fff"/><path opacity=".1" d="M11.84 24.83 5.184.33A.566.566 0 0 0 4.69.013H.595A.583.583 0 0 0 .06.85l11.78 23.98Z" fill="#fff"/><path opacity=".1" d="M13.787 17.735.061.835C-.102.44.144.042.527 0h4.15c.233.014.411.164.494.315l8.616 17.42Z" fill="#fff"/></svg>