<svg width="487" height="112" fill="none" xmlns="http://www.w3.org/2000/svg"><path d="m.5 48.5 11 1 2.5-1 .5-1h5l1 1h16l1-1h4l1 1 2 .5 1-1.5h1l1-.5.5-.5h.5v-6h2l1-1h2l2 2h2l1-.5 4-.5.5 1h2.5l2-2h6l1 1h2l3-2h6l1-1.5 2-2.5 1 1h2l1-1h9l3-2 1 1h2.5l4.5-4h1l1 2 1 1h1l1-1h1l1 1 1 1h12l1-1 1 1 1.5 1 4.5-4h7l1-.5v-4.5l1-1h1l1 1h2l1 1h3v1h3l1 1h1.5v-2l1.5-1h1l4 3h1l1-1 1-.5 4.5 3.5 2-1h5.5l1 1v1l1 1 1-1 1-1h1l2 2h1l1.5-1 2-1h1.5l1-1h4l2-3 1-1 1 1h4L213 25l.5-.5 4 4h3l1-.5 1-.5 1 1h1l1 1 1 1h7.5l1 1h1l.5-1h5v-3l1-1h3v-1l1-.5 1-.5 1 1 2-1 4 2h4.5l1.5-.5 2.5-.5.5-2h4.5l1.5-1h1l1 1.5 1 1 1-1.5 3-2h2.5l1.5 1h5v-1h3l1 1h3.5l1-1h2.5l.5 1h2.5l1-1h2l2 2h1l1-1h3l.5 1h.5l.5-1h4.5l2 3h1l1-1 4-2h3.5l.5 1.5 2 1.5 3 .5 4.5-.5 2-1 1.5-1v-2l4.5-.5 1-.5h2v1l1.5-.5 2-1v1.693c.167.436.6 1.307 1 1.307s1.167.333 1.5.5l1.5.5 1.5-.5 5.5-1.5 1.5-3 2 1.5 2-.5 1-2 1-2.5V15l1 2.5.5.5 2-.5V17l-.5-.5V15c0-.5-.5-1.5 0-1.5s.988 1 1.244 1.5c.205.4 1.256.167 1.756 0l1.5-1.5.5-.5 2.5-.5v-5h1.5l.5-1h1V4l1-2.5h1.5l2.5 3 2.5-2h1.5l1 2h1V3l1-.5 1 .5.5 1.5.5 88 1 1.5v16l4.5-.5 2.5-2 1.5 1h5l.5-1h3l.5 1h2.5l1 1 1 1 7.5-.5.5-62 4.5-.5 8.5-4c.333-.167 1-.4 1 0v4h2c.4 0 .5.667.5 1h3.5v1h3l1 1h1l.5 2h4.5l1-1h3.5l1-1h1.5l1 1 1 1.5h1.5l1.5-.5 2-1 1.5-.5.5-1.5V37l3.5-.5.5-1v-5l2-1h4.5l.5-1" stroke="#99CAF4" stroke-width="2"/></svg>