<svg width="24" height="31" fill="none" xmlns="http://www.w3.org/2000/svg"><path d="M22.606 18.717c-.422-1.017-1.247-1.86-2.474-2.53 1.902-.4 3.03-1.647 3.381-3.743.134-.758.103-1.455-.091-2.092a3.993 3.993 0 0 0-1.032-1.688 7.915 7.915 0 0 0-1.695-1.273 15.538 15.538 0 0 0-2.253-1.017l1.15-4.239-2.59-.703-1.117 4.121a95.803 95.803 0 0 0-2.062-.523L14.951.875 12.36.172l-1.15 4.239c-.374-.09-.92-.231-1.637-.426l-3.561-.984-.749 2.758 1.867.507c.853.231 1.248.748 1.187 1.55l-1.31 4.827c.112.03.2.06.264.09l-.269-.073-1.835 6.761c-.244.548-.647.746-1.208.594l-1.867-.507-1.357 2.937 3.364.912c.214.058.521.145.923.26.402.115.704.2.906.254l-1.164 4.29 2.591.702 1.15-4.238c.468.14 1.15.33 2.048.574L9.408 29.42l2.59.703 1.164-4.289c.932.205 1.77.343 2.515.412.746.07 1.48.061 2.202-.026.721-.087 1.354-.267 1.898-.541.544-.274 1.04-.675 1.491-1.203.45-.528.823-1.18 1.117-1.954.57-1.519.643-2.787.22-3.805ZM13.052 8.071l.667.172c.366.093.67.17.913.229.243.06.564.162.964.307s.733.283.998.415.549.309.85.529c.302.22.528.45.68.69.151.24.258.521.32.845.063.324.044.671-.056 1.041a2.427 2.427 0 0 1-.384.817c-.17.23-.381.406-.63.525s-.498.214-.746.285a2.954 2.954 0 0 1-.9.09 17.469 17.469 0 0 1-.916-.05 7.354 7.354 0 0 1-.95-.159 60.09 60.09 0 0 1-.85-.194 18.627 18.627 0 0 1-.783-.213 72.01 72.01 0 0 0-.578-.166l1.402-5.163Zm3.965 13.373c-.177.23-.375.416-.595.562-.22.144-.487.253-.801.324a5.902 5.902 0 0 1-.895.136c-.282.02-.615.014-.997-.018a12.71 12.71 0 0 1-.998-.117 18.23 18.23 0 0 1-1.002-.2 23.036 23.036 0 0 1-1.704-.444c-.324-.094-.53-.153-.62-.177l1.543-5.686c.09.025.357.092.803.2a45.7 45.7 0 0 1 1.09.278c.28.076.663.198 1.147.366.484.167.885.33 1.204.489.318.158.657.361 1.017.61.36.248.636.506.828.775.192.27.33.583.412.943.084.36.07.741-.04 1.145a2.306 2.306 0 0 1-.392.814Z" fill="#000"/></svg>