<svg width="35" height="35" fill="none" xmlns="http://www.w3.org/2000/svg"><path d="M11.165 30.484A3.968 3.968 0 0 0 14.307 32h12.967c.954 0 1.726-.758 1.726-1.694 0-.935-.772-1.694-1.726-1.694H14.307a.512.512 0 0 1-.5-.636l2.128-7.97 5.037-1.831a1.685 1.685 0 0 0 1.019-2.177c-.331-.877-1.324-1.325-2.218-1l-2.77 1.007 2.106-7.881a1.691 1.691 0 0 0-1.232-2.068c-.922-.237-1.865.304-2.106 1.209l-2.719 10.177-4.925 1.79a1.685 1.685 0 0 0-1.02 2.177 1.725 1.725 0 0 0 1.62 1.106c.198 0 .4-.034.598-.106l2.659-.966-1.515 5.673a3.813 3.813 0 0 0 .696 3.368Z" fill="#000"/></svg>