<svg width="60" height="60" fill="none" xmlns="http://www.w3.org/2000/svg"><path d="M10.338 52.66C4.005 47.16 0 39.047 0 30 0 13.431 13.431 0 30 0c16.569 0 30 13.431 30 30 0 9.054-4.01 17.171-10.352 22.672l-39.31-.012Z" fill="#FE6A16"/><path d="M59.753 33.87 38.948 13.067 16.865 30l7.101 7.101-.931.513 15.054 15.054 11.558.004c5.424-4.704 9.142-11.321 10.106-18.801Z" fill="#F24500"/><path d="M30 47.865c3.054 0 5.762-3.108 7.44-5.396l-1.743-.621c-1.231-.44-2.064-1.69-2.064-3.1V34.5H26.43v4.248c0 1.41-.833 2.66-2.064 3.1l-1.792.64c1.678 2.277 4.38 5.377 7.426 5.377Z" fill="#FFBEAA"/><path d="M35.697 41.848c-1.231-.44-2.064-1.69-2.064-3.1V34.5h-3.675v13.364l.042.001c3.054 0 5.762-3.108 7.44-5.396l-1.743-.621Z" fill="#FAA68E"/><path d="M46.893 48.295c-1.308-2.059-3.2-3.595-5.385-4.375l-2.181-.778-1.888-.058a9.174 9.174 0 0 1-7.43 3.755c-3.047 0-5.936-1.522-7.615-3.8l-1.706.12-2.133.761c-2.186.78-4.077 2.316-5.385 4.375l-2.835 4.362A29.885 29.885 0 0 0 30 60a29.884 29.884 0 0 0 19.648-7.328l-2.755-4.377Z" fill="#fff"/><path d="m49.648 52.672-2.755-4.377c-1.308-2.059-3.2-3.595-5.385-4.375l-2.182-.778-1.887-.058a9.174 9.174 0 0 1-7.43 3.755l-.05-.001v13.161l.04.001a29.884 29.884 0 0 0 19.649-7.328Z" fill="#E9EDF5"/><path d="M30.002 48.075c3.795 0 7.171-2.146 9.326-4.932l-1.889-.674A9.207 9.207 0 0 1 30 46.242a9.206 9.206 0 0 1-7.426-3.755l-1.884.672c2.155 2.777 5.525 4.916 9.312 4.916Z" fill="#E9EDF5"/><path d="M37.44 42.47A9.207 9.207 0 0 1 30 46.241h-.042v1.833h.044c3.795 0 7.171-2.146 9.326-4.932l-1.889-.674Z" fill="#CDD2E1"/><path d="M23.227 27.519a3.965 3.965 0 1 0-7.826-1.284 3.965 3.965 0 0 0 7.826 1.284Z" fill="#FFBEAA"/><path d="M44.616 27.515a3.965 3.965 0 1 0-7.826-1.285 3.965 3.965 0 0 0 7.826 1.285Z" fill="#FAA68E"/><path d="M30 40.02c-6.23 0-11.281-5.05-11.281-11.281v-3.896c0-6.23 5.05-11.28 11.281-11.28 6.23 0 11.281 5.05 11.281 11.28v3.896c0 6.23-5.05 11.281-11.281 11.281Z" fill="#FFDECF"/><path d="M30 13.563h-.042V40.02H30c6.23 0 11.281-5.05 11.281-11.281v-3.896c0-6.23-5.05-11.28-11.281-11.28Z" fill="#FFCDBE"/><path d="M42.434 21.699c0-6.882-5.59-12.458-12.478-12.434-6.872.024-12.39 5.697-12.39 12.569v4.089c0 .79.641 1.432 1.432 1.432.17-7.806 5.029-12.564 11.002-12.564 5.973 0 10.832 4.758 11.002 12.564.79 0 1.432-.642 1.432-1.432v-4.224Z" fill="#707789"/><path d="M29.958 9.265v5.527H30c5.973 0 10.832 4.756 11.002 12.563.791 0 1.432-.642 1.432-1.433V21.7c0-6.881-5.59-12.457-12.476-12.434Z" fill="#555A66"/></svg>