<svg width="24" height="20" fill="none" xmlns="http://www.w3.org/2000/svg"><path d="M2.5 16.5h18l-3.5-3v-8l-2.5-4h-6l-3 4v8l-3 3Z" stroke="#020B2A" stroke-width="2"/><mask id="a" fill="#fff"><path d="m11.5 19.5-1.5-1V17h3.5v1.5l-2 1Z"/></mask><path d="M10 18.5H7v1.606l1.336.89L10 18.5Zm1.5 1-1.664 2.496 1.448.966 1.558-.779L11.5 19.5Zm2-1 1.342 2.683 1.658-.829V18.5h-3Zm0-1.5h3v-3h-3v3ZM10 17v-3H7v3h3Zm-1.664 3.996 1.5 1 3.328-4.992-1.5-1-3.328 4.992Zm4.506 1.187 2-1-2.684-5.366-2 1 2.684 5.366ZM16.5 18.5V17h-6v1.5h6Zm-3-4.5H10v6h3.5v-6ZM7 17v1.5h6V17H7Z" fill="#020B2A" mask="url(#a)"/></svg>