<svg width="99" height="75" fill="none" xmlns="http://www.w3.org/2000/svg"><rect x="78.881" width="32.43" height="91.741" rx="16.215" transform="rotate(59.296 78.88 0)" fill="#DED5FA"/><path d="M18.218 22.337c-7.417.762-12.811 7.393-12.049 14.81L7.308 48.22c.762 7.416 7.393 12.81 14.81 12.048l61.385-6.31c7.417-.763 12.811-7.394 12.049-14.81l-1.139-11.074c-.762-7.416-7.393-12.81-14.81-12.048l-61.385 6.31Z" fill="#222" stroke="#DED5FA"/><path d="M17.167 20.84c-7.692.79-13.286 7.666-12.495 15.358L6.049 49.59c.79 7.692 7.667 13.286 15.358 12.495l63.062-6.483c7.691-.79 13.285-7.667 12.494-15.358L95.587 26.85c-.791-7.691-7.668-13.285-15.359-12.495L17.167 20.84Z" stroke="#222" stroke-width="2"/><path d="m29.34 49.301 3.807-.447-1.383-11.772 2.601-.306-.362-3.084-2.601.306-.073-.617c-.195-1.663.353-2.325 2.182-2.486l-.371-3.164c-4.196.384-6.063 2.316-5.634 5.963l.088.751-1.69.199.363 3.083 1.69-.198 1.382 11.772Zm12.262-8.944c-.337-2.87.903-3.885 3.129-4.146l.992-.117-.463-3.942c-2.065.243-3.504 1.418-4.263 3.057l-.27-2.307-3.755.441L38.717 48.2l3.755-.44-.87-7.402ZM55.066 34.1c1.93-.227 3.631.824 3.915 2.775l-7.053.828c.056-2.072 1.341-3.392 3.138-3.603Zm7.916 6.519-4.05.475c-.366 1.05-1.156 1.957-2.765 2.147-1.877.22-3.524-.837-3.97-3.014l10.86-1.276a8.84 8.84 0 0 0-.062-1.46c-.52-4.425-3.893-6.992-8.184-6.488-4.398.517-7.105 3.852-6.554 8.545.548 4.666 4.039 7.3 8.356 6.794 3.674-.432 5.886-2.894 6.369-5.723Zm9.17-8.527c1.931-.226 3.632.824 3.915 2.776l-7.052.828c.055-2.073 1.341-3.393 3.138-3.604Zm7.916 6.52-4.049.475c-.366 1.049-1.156 1.957-2.765 2.146-1.878.22-3.524-.836-3.97-3.013l10.86-1.276a8.83 8.83 0 0 0-.063-1.46c-.52-4.425-3.893-6.992-8.183-6.488-4.398.517-7.105 3.852-6.554 8.545.548 4.666 4.038 7.3 8.356 6.794 3.673-.432 5.885-2.894 6.368-5.724Z" fill="#DED5FA"/></svg>