<svg width="24" height="23" fill="none" xmlns="http://www.w3.org/2000/svg"><path d="M2.5 0h11C14.878 0 16 1.122 16 2.5v6a.5.5 0 0 1-1 0v-6c0-.827-.673-1.5-1.5-1.5h-11C1.673 1 1 1.673 1 2.5v18c0 .827.673 1.5 1.5 1.5h11c.827 0 1.5-.673 1.5-1.5v-6a.5.5 0 0 1 1 0v6c0 1.378-1.122 2.5-2.5 2.5h-11A2.503 2.503 0 0 1 0 20.5v-18C0 1.122 1.122 0 2.5 0Z" fill="#A5A5A5"/><path d="M6.5 11h16a.5.5 0 0 1 0 1h-16a.5.5 0 0 1 0-1Z" fill="#A5A5A5"/><path d="m6.147 11.148 3-3a.5.5 0 0 1 .707.707l-2.646 2.646 2.646 2.646a.5.5 0 0 1-.707.708l-3-3a.5.5 0 0 1 0-.707Z" fill="#A5A5A5"/><path d="M3.5 0h11C15.878 0 17 1.122 17 2.5v6a.5.5 0 0 1-1 0v-6c0-.827-.673-1.5-1.5-1.5h-11C2.673 1 2 1.673 2 2.5v18c0 .827.673 1.5 1.5 1.5h11c.827 0 1.5-.673 1.5-1.5v-6a.5.5 0 0 1 1 0v6c0 1.378-1.122 2.5-2.5 2.5h-11A2.503 2.503 0 0 1 1 20.5v-18C1 1.122 2.122 0 3.5 0Z" fill="#A5A5A5"/><path d="M7.5 11h16a.5.5 0 0 1 0 1h-16a.5.5 0 0 1 0-1Z" fill="#A5A5A5"/><path d="m7.147 11.148 3-3a.5.5 0 0 1 .707.707l-2.646 2.646 2.646 2.646a.5.5 0 0 1-.707.708l-3-3a.5.5 0 0 1 0-.707Z" fill="#A5A5A5"/></svg>