<svg width="24" height="24" fill="none" xmlns="http://www.w3.org/2000/svg"><path d="M21.805 5.995h-.299v-2.9c0-1.21-.984-2.195-2.195-2.195H3.391A3.394 3.394 0 0 0 .018 3.957C-.008 4.078.002 3 .002 19.711a3.393 3.393 0 0 0 3.389 3.39h18.414c1.21 0 2.195-.986 2.195-2.196V8.19c0-1.21-.985-2.195-2.195-2.195ZM3.39 2.408h15.92c.38 0 .688.308.688.687v2.9H3.39A1.884 1.884 0 0 1 1.51 4.2a1.883 1.883 0 0 1 1.88-1.793Zm18.414 19.184H3.39a1.883 1.883 0 0 1-1.882-1.88V6.931a3.37 3.37 0 0 0 1.882.57h18.414c.379 0 .687.309.687.688v3.056H16.82a3.508 3.508 0 0 0-3.504 3.504 3.508 3.508 0 0 0 3.504 3.504h5.673v2.651a.688.688 0 0 1-.687.687Zm.687-4.846H16.82c-1.1 0-1.996-.895-1.996-1.996 0-1.1.895-1.996 1.996-1.996h5.673v3.992Z" fill="#A5A5A5"/></svg>