<svg width="28" height="31" fill="none" xmlns="http://www.w3.org/2000/svg"><path d="M27.874 29.815c-.247-.165-.452-.29-.645-.429-4.616-3.29-9.232-6.578-13.847-9.87-3.42-2.437-6.83-4.888-10.262-7.308C1.085 10.772.082 8.845.109 6.357.126 4.782.084 3.207.074 1.634c0-.129.035-.257.064-.459.183.106.312.168.426.25C4.242 4.057 7.924 6.696 11.6 9.332c4.55 3.262 9.105 6.522 13.649 9.791 1.639 1.18 2.603 2.797 2.704 4.802.096 1.883.008 3.772-.005 5.66.003.049-.027.098-.074.229ZM.047 12.036c.452.328.798.579 1.145.833 3.352 2.461 6.7 4.93 10.059 7.381 1.8 1.311 2.7 3.087 2.761 5.278.047 1.71.013 3.422.01 5.132 0 .091-.024.182-.047.342-.148-.073-.27-.115-.368-.187a9992.33 9992.33 0 0 1-8.223-5.955c-.902-.653-1.812-1.298-2.704-1.966C.922 21.576.025 19.812.007 17.619c-.014-1.656-.002-3.314 0-4.97 0-.157.018-.315.04-.613ZM27.837 18.898c-.119-.082-.24-.158-.354-.242-3.58-2.594-7.162-5.181-10.729-7.785-1.812-1.324-2.73-3.127-2.747-5.37-.012-1.643-.002-3.286-.002-4.93V0c.193.103.326.153.438.234 3.636 2.67 7.285 5.332 10.904 8.027 1.73 1.289 2.623 3.038 2.616 5.216-.008 1.629-.003 3.26-.003 4.888v.476a1.836 1.836 0 0 0-.123.057Z" fill="#202020"/></svg>