<svg width="21" height="23" fill="none" xmlns="http://www.w3.org/2000/svg"><path d="M10.5 0a6.071 6.071 0 0 0-6.064 6.064A6.071 6.071 0 0 0 10.5 12.13a6.071 6.071 0 0 0 6.064-6.065A6.071 6.071 0 0 0 10.5 0Zm0 10.781a4.722 4.722 0 0 1-4.717-4.717c0-2.6 2.116-4.716 4.717-4.716 2.6 0 4.717 2.116 4.717 4.716 0 2.601-2.116 4.717-4.717 4.717ZM12.38 13.521H8.62c-3.108 0-6.176 1.436-8.227 4.513V23h20.214v-4.966c-2.048-3.073-5.115-4.512-8.228-4.512Zm6.88 8.131H1.74v-3.205a8.388 8.388 0 0 1 6.88-3.578h3.76a8.387 8.387 0 0 1 6.88 3.578v3.205Z" fill="#A3A3A3"/></svg>